<svg xmlns="http://www.w3.org/2000/svg" width="153" height="153" viewBox="0 0 153 153"><g transform="translate(-620.5 -385.5)"><rect width="153" height="153" transform="translate(620.5 385.5)" opacity="0.525"/><g transform="translate(655.286 425.628)"><path d="M48.4,15.369v.764H32.265V0h.764a3.025,3.025,0,0,1,2.139.886L47.512,13.23A3.025,3.025,0,0,1,48.4,15.369Zm-17.141,4.8a3.034,3.034,0,0,1-3.025-3.025V0H3.025A3.025,3.025,0,0,0,0,3.025V61.506a3.025,3.025,0,0,0,3.025,3.025H45.373A3.025,3.025,0,0,0,48.4,61.506V20.166ZM14.185,22.182a6.05,6.05,0,1,1-6.05,6.05A6.05,6.05,0,0,1,14.185,22.182ZM40.4,52.431H8.135L8.2,46.32l4.98-4.98a1.441,1.441,0,0,1,2.078.061l4.98,4.98L33.281,33.335a1.513,1.513,0,0,1,2.139,0l4.98,4.98V52.431Z" transform="translate(20.296 0)" fill="#fff"/><text transform="translate(0 79.515)" fill="#fff" font-size="10" font-family="SegoeUI-Bold, Segoe UI" font-weight="700"><tspan x="0" y="0">Update main image</tspan></text></g></g></svg>