<svg id="Layer_1" data-name="Layer 1" xmlns="http://www.w3.org/2000/svg" viewBox="0 0 11.04 11.11"><defs><style>.cls-1{fill:#343a40;}</style></defs><title>Enlarge_icon</title><polygon class="cls-1" points="11.04 4.19 11.04 0 6.72 0 6.72 1.18 9.04 1.18 5.52 4.72 2 1.18 4.32 1.18 4.32 0 0 0 0 4.19 1.18 4.19 1.18 2.02 4.69 5.55 1.18 9.09 1.18 6.91 0 6.91 0 11.11 4.32 11.11 4.32 9.93 2 9.93 5.52 6.39 9.04 9.93 6.72 9.93 6.72 11.11 11.04 11.11 11.04 6.91 9.87 6.91 9.87 9.09 6.35 5.55 9.87 2.02 9.87 4.19 11.04 4.19"/></svg>